<svg width="256" height="256" viewBox="0 0 256 256" fill="none" xmlns="http://www.w3.org/2000/svg">
<path d="M129.776 41.7563H88.3346C63.4331 41.7563 42.8805 60.3761 39.84 84.4525H63.2396C66.0118 73.1688 76.1957 64.7985 88.3346 64.7985H116.473L129.776 41.7563Z" fill="url(#paint0_linear_108_2)"/>
<path d="M127.115 64.7985L140.419 41.7563H163.708L150.405 64.7985H127.115Z" fill="url(#paint1_linear_108_2)"/>
<path d="M161.047 64.7985H191.48C201.419 64.7985 210.952 68.7468 217.98 75.7749L236.332 94.1276C240.832 98.6268 248.126 98.6268 252.626 94.1276C257.125 89.6283 257.125 82.3336 252.626 77.8343L229.501 54.7094C221.207 46.4157 209.958 41.7563 198.229 41.7563H174.35L161.047 64.7985Z" fill="url(#paint2_linear_108_2)"/>
<path d="M63.0662 96.0699H39.7506C42.4524 120.511 63.1735 139.521 88.3346 139.521H113.885L100.582 116.479H88.3346C75.9265 116.479 65.5611 107.733 63.0662 96.0699Z" fill="url(#paint3_linear_108_2)"/>
<path d="M111.224 116.479L124.527 139.521H145.78L132.477 116.479H111.224Z" fill="url(#paint4_linear_108_2)"/>
<path d="M143.119 116.479L156.423 139.521H168.982C181.239 139.521 191.502 148.054 194.156 159.504H217.517C214.623 135.268 193.997 116.479 168.982 116.479H143.119Z" fill="url(#paint5_linear_108_2)"/>
<path d="M217.529 171.121H194.178C191.56 182.62 181.273 191.202 168.982 191.202H144.6L131.296 214.243L168.982 214.243C194.03 214.243 214.678 195.404 217.529 171.121Z" fill="url(#paint6_linear_108_2)"/>
<path d="M120.654 214.243L133.957 191.202H110.668L97.3646 214.244L120.654 214.243Z" fill="url(#paint7_linear_108_2)"/>
<path d="M86.7221 214.244L100.025 191.202H64.5196C54.5804 191.202 45.0484 187.253 38.0203 180.225L19.6677 161.873C15.1684 157.373 7.87369 157.373 3.37444 161.873C-1.12483 166.372 -1.12481 173.667 3.37447 178.166L26.4994 201.291C34.7932 209.584 46.0419 214.244 57.7709 214.244L86.7221 214.244Z" fill="url(#paint8_linear_108_2)"/>
<defs>
<linearGradient id="paint0_linear_108_2" x1="256" y1="41.7563" x2="-6.26951e-06" y2="214.244" gradientUnits="userSpaceOnUse">
<stop stop-color="#2196F3"/>
<stop offset="1" stop-color="#C099FF"/>
</linearGradient>
<linearGradient id="paint1_linear_108_2" x1="256" y1="41.7563" x2="-6.26951e-06" y2="214.244" gradientUnits="userSpaceOnUse">
<stop stop-color="#2196F3"/>
<stop offset="1" stop-color="#C099FF"/>
</linearGradient>
<linearGradient id="paint2_linear_108_2" x1="256" y1="41.7563" x2="-6.26951e-06" y2="214.244" gradientUnits="userSpaceOnUse">
<stop stop-color="#2196F3"/>
<stop offset="1" stop-color="#C099FF"/>
</linearGradient>
<linearGradient id="paint3_linear_108_2" x1="256" y1="41.7563" x2="-6.26951e-06" y2="214.244" gradientUnits="userSpaceOnUse">
<stop stop-color="#2196F3"/>
<stop offset="1" stop-color="#C099FF"/>
</linearGradient>
<linearGradient id="paint4_linear_108_2" x1="256" y1="41.7563" x2="-6.26951e-06" y2="214.244" gradientUnits="userSpaceOnUse">
<stop stop-color="#2196F3"/>
<stop offset="1" stop-color="#C099FF"/>
</linearGradient>
<linearGradient id="paint5_linear_108_2" x1="256" y1="41.7563" x2="-6.26951e-06" y2="214.244" gradientUnits="userSpaceOnUse">
<stop stop-color="#2196F3"/>
<stop offset="1" stop-color="#C099FF"/>
</linearGradient>
<linearGradient id="paint6_linear_108_2" x1="256" y1="41.7563" x2="-6.26951e-06" y2="214.244" gradientUnits="userSpaceOnUse">
<stop stop-color="#2196F3"/>
<stop offset="1" stop-color="#C099FF"/>
</linearGradient>
<linearGradient id="paint7_linear_108_2" x1="256" y1="41.7563" x2="-6.26951e-06" y2="214.244" gradientUnits="userSpaceOnUse">
<stop stop-color="#2196F3"/>
<stop offset="1" stop-color="#C099FF"/>
</linearGradient>
<linearGradient id="paint8_linear_108_2" x1="256" y1="41.7563" x2="-6.26951e-06" y2="214.244" gradientUnits="userSpaceOnUse">
<stop stop-color="#2196F3"/>
<stop offset="1" stop-color="#C099FF"/>
</linearGradient>
</defs>
</svg>
